HIERARCHY
ROOT Pelvis
{
	OFFSET 0.000000 0.000000 0.000000
	CHANNELS 6 Xposition Yposition Zposition Zrotation Yrotation Xrotation 
	JOINT Left_hip
	{
		OFFSET 0.069463 -0.088608 -0.009542
		CHANNELS 3 Zrotation Yrotation Xrotation
		JOINT Left_knee
		{
			OFFSET 0.030639 -0.359740 -0.005288
			CHANNELS 3 Zrotation Yrotation Xrotation
			JOINT Left_ankle
			{
				OFFSET -0.011068 -0.376034 -0.042462
				CHANNELS 3 Zrotation Yrotation Xrotation
				JOINT Left_foot
				{
					OFFSET 0.023192 -0.053321 0.111332
					CHANNELS 3 Zrotation Yrotation Xrotation
					End Site
					{
						OFFSET 0.000000 0.000000 0.000000
					}
				}
			}
		}
	}
	JOINT Right_hip
	{
		OFFSET -0.067438 -0.088025 -0.006263
		CHANNELS 3 Zrotation Yrotation Xrotation
		JOINT Right_knee
		{
			OFFSET -0.035962 -0.366229 -0.008063
			CHANNELS 3 Zrotation Yrotation Xrotation
			JOINT Right_ankle
			{
				OFFSET 0.013608 -0.375719 -0.040481
				CHANNELS 3 Zrotation Yrotation Xrotation
				JOINT Right_foot
				{
					OFFSET -0.021034 -0.045527 0.114617
					CHANNELS 3 Zrotation Yrotation Xrotation
					End Site
					{
						OFFSET 0.000000 0.000000 0.000000
					}
				}
			}
		}
	}
	JOINT Spine1
	{
		OFFSET -0.002610 0.101823 -0.019986
		CHANNELS 3 Zrotation Yrotation Xrotation
		JOINT Spine2
		{
			OFFSET 0.004114 0.128714 -0.000938
			CHANNELS 3 Zrotation Yrotation Xrotation
			JOINT Spine3
			{
				OFFSET 0.002191 0.048470 0.027684
				CHANNELS 3 Zrotation Yrotation Xrotation
				JOINT Neck
				{
					OFFSET -0.002856 0.198873 -0.044022
					CHANNELS 3 Zrotation Yrotation Xrotation
					JOINT Head
					{
						OFFSET 0.002981 0.062960 0.049860
						CHANNELS 3 Zrotation Yrotation Xrotation
						End Site
						{
							OFFSET 0.000000 0.000000 0.000000
						}
					}
				}
				JOINT Left_collar
				{
					OFFSET 0.073708 0.112550 -0.033440
					CHANNELS 3 Zrotation Yrotation Xrotation
					JOINT Left_shoulder
					{
						OFFSET 0.083291 0.030786 -0.008013
						CHANNELS 3 Zrotation Yrotation Xrotation
						JOINT Left_elbow
						{
							OFFSET 0.245601 -0.011792 -0.027873
							CHANNELS 3 Zrotation Yrotation Xrotation
							JOINT Left_wrist
							{
								OFFSET 0.232258 0.008622 -0.000487
								CHANNELS 3 Zrotation Yrotation Xrotation
								JOINT Left_palm
								{
									OFFSET 0.077300 -0.009457 -0.012851
									CHANNELS 3 Zrotation Yrotation Xrotation
									End Site
									{
										OFFSET 0.000000 0.000000 0.000000
									}
								}
							}
						}
					}
				}
				JOINT Right_collar
				{
					OFFSET -0.075339 0.110574 -0.037874
					CHANNELS 3 Zrotation Yrotation Xrotation
					JOINT Right_shoulder
					{
						OFFSET -0.086522 0.031207 -0.009986
						CHANNELS 3 Zrotation Yrotation Xrotation
						JOINT Right_elbow
						{
							OFFSET -0.237313 -0.011478 -0.019859
							CHANNELS 3 Zrotation Yrotation Xrotation
							JOINT Right_wrist
							{
								OFFSET -0.237599 0.007976 -0.003742
								CHANNELS 3 Zrotation Yrotation Xrotation
								JOINT Right_palm
								{
									OFFSET -0.076920 -0.006943 -0.009920
									CHANNELS 3 Zrotation Yrotation Xrotation
									End Site
									{
										OFFSET 0.000000 0.000000 0.000000
									}
								}
							}
						}
					}
				}
			}
		}
	}
}
MOTION
Frames: 14
Frame Time: 0.100000
0.000000 0.000000 0.000000 177.201648 26.670061 -26.239296 3.125745 5.332873 19.345449 0.261493 -11.231363 -2.264486 5.780967 4.993165 -4.669385 -11.907317 9.974191 -1.408348 -2.170201 -6.482104 22.931749 -1.217265 -0.259255 -3.436403 -8.745308 -8.884101 -7.768783 15.542131 -3.516864 11.515846 -0.412392 1.559539 5.978994 0.120438 -4.334164 8.920111 -0.799778 -2.881622 -1.301673 0.406313 -14.165518 12.331887 -0.581454 -15.778641 3.777316 -33.413050 -2.503213 8.389041 -46.555008 -8.627973 7.455579 -0.077541 -16.834326 15.800154 -14.623455 3.723955 0.313961 -8.363010 -3.584996 -9.463311 34.629696 6.845242 6.119216 51.538595 2.887747 10.539283 -5.908716 12.129419 -1.538109 9.642118 -4.518390 -0.760030 11.296732 9.021320 -3.573869 
-0.000107 -0.002515 -0.000993 177.131684 26.552898 -26.584229 3.089575 5.421841 19.743862 0.423178 -11.306054 -2.215139 5.698274 4.996902 -4.613696 -11.875127 9.957610 -1.540043 -2.351122 -6.520587 23.366574 -1.108308 -0.290278 -3.379140 -8.648099 -8.761002 -7.664351 15.418487 -3.430358 11.502901 -0.274304 1.458355 5.988792 0.066600 -4.450046 9.137537 -0.867678 -2.931413 -1.250729 0.265002 -14.252013 12.739239 -0.629520 -15.732742 3.926084 -33.392741 -2.629283 8.514305 -46.647984 -8.682264 7.449211 -0.090347 -16.868140 15.826777 -14.741830 3.761007 0.229952 -8.371106 -3.583218 -9.421917 34.500814 6.898644 6.167937 51.563332 2.820292 10.431814 -5.793512 12.055292 -1.569562 9.726326 -4.601545 -0.806919 11.334679 9.037008 -3.572682 
0.000182 -0.000142 0.000426 177.150439 26.462311 -26.555396 3.156856 5.443994 19.647894 0.385314 -11.229694 -2.053064 5.739318 5.043308 -4.674325 -11.901273 9.936633 -1.550318 -2.349860 -6.539793 23.271015 -1.066330 -0.234313 -3.294175 -8.646892 -8.629023 -7.731453 15.457495 -3.503022 11.496191 -0.288844 1.464920 5.997764 0.078419 -4.441368 9.059760 -0.858400 -2.930363 -1.267510 0.236901 -14.249930 12.864089 -0.655918 -15.735540 4.016103 -33.333188 -2.605702 8.493393 -46.670455 -8.660958 7.456522 -0.103904 -16.881573 15.865280 -14.732978 3.757525 0.223942 -8.396745 -3.572693 -9.431356 34.470482 6.866393 6.172590 51.582938 2.836159 10.425291 -5.784296 12.082082 -1.515461 9.726221 -4.591185 -0.835054 11.355584 9.040415 -3.583841 
-0.000136 0.000285 0.000927 177.098175 26.102400 -26.470916 3.435035 5.563427 19.110297 0.108625 -11.073339 -1.030971 5.994100 5.182179 -5.103370 -12.126261 9.844015 -1.637324 -2.267175 -6.534805 22.471249 -0.910666 -0.188093 -1.929464 -8.896833 -8.244674 -8.458607 15.908942 -3.990862 11.424751 -0.361762 1.456276 6.191329 0.199700 -4.375687 8.617334 -0.779131 -2.924790 -1.316675 0.218240 -14.157347 13.197588 -0.738305 -15.660191 4.209640 -33.142070 -2.479353 8.465667 -46.803851 -8.503655 7.491205 -0.200081 -16.961050 16.196795 -14.666735 3.752273 0.220781 -8.414273 -3.456700 -9.477759 34.347273 6.705134 6.168503 51.673653 2.807940 10.400946 -5.795017 12.300887 -1.218627 9.723936 -4.497562 -1.035266 11.290354 9.002376 -3.539616 
-0.000981 -0.001445 0.000453 177.006195 25.750128 -26.521591 3.442326 5.659763 18.265602 -0.090575 -10.950793 0.826549 6.342637 5.290170 -5.738799 -12.446832 9.784743 -1.901430 -2.483543 -6.687840 21.641735 -0.675035 -0.307037 -0.128933 -9.141090 -7.770774 -9.256658 16.277671 -4.434398 11.380318 -0.147983 1.388270 6.739318 0.233817 -4.356253 8.213019 -0.808421 -2.912168 -1.427113 0.081671 -14.221774 13.605987 -0.813293 -15.586158 4.418580 -33.096855 -2.487872 8.489779 -46.883150 -8.345846 7.486995 -0.272294 -17.220122 16.438044 -14.671730 3.818954 0.128306 -8.472490 -3.356790 -9.412265 34.189381 6.659192 6.248577 51.646240 2.686542 10.194446 -5.725328 12.457660 -1.131607 9.730839 -4.460190 -1.209945 11.247444 9.017538 -3.458969 
0.000122 0.002378 -0.001593 176.843386 25.693251 -26.292710 3.192202 5.156254 14.985702 -0.739822 -10.569173 6.424251 7.113617 5.795659 -7.268218 -12.831009 9.760203 -2.773638 -2.203537 -6.599099 18.955901 -0.599248 -0.589591 4.361440 -9.555223 -7.897599 -11.029247 16.339892 -4.841162 11.066330 -0.096178 1.293261 8.121219 0.363270 -4.219089 6.872572 -0.810815 -2.941517 -1.272202 -0.018064 -14.170627 13.783493 -1.158411 -15.460886 5.488022 -32.582819 -2.200213 8.366106 -47.049137 -8.227301 7.518649 -0.174801 -18.356318 16.845000 -14.386055 3.821979 -0.211384 -8.243260 -3.059066 -9.031387 33.791622 6.472025 6.115840 51.860051 2.462347 10.294386 -5.685455 13.116074 -0.716077 9.624876 -4.305620 -1.552750 10.774542 8.852149 -3.099495 
0.003931 0.011375 -0.006774 176.753655 25.304392 -25.463405 3.243285 4.322807 8.750194 -2.665515 -9.475116 15.848684 7.938786 6.339522 -9.269628 -12.911218 9.963103 -4.465778 -2.101067 -6.103656 13.376498 0.149557 -1.095498 12.564571 -9.997512 -8.116389 -14.157223 15.883633 -5.199412 10.377827 0.163488 1.178695 10.881112 0.535019 -3.874618 4.989327 -0.869231 -2.867006 -0.970408 0.083363 -13.911895 12.745353 -1.406951 -15.555569 6.475159 -31.893898 -2.358756 7.939624 -47.158879 -8.425785 7.479291 0.225665 -19.743688 16.698040 -13.598059 3.803784 -0.559355 -7.975718 -2.605340 -8.650689 33.077749 6.687152 5.908677 52.033223 2.509667 10.410782 -5.803006 14.794248 -0.335912 9.129406 -3.959410 -1.973974 10.071082 8.577785 -2.713940 
0.007077 0.022311 -0.007943 176.553233 26.159730 -25.089520 3.355828 3.123052 3.929666 -4.595959 -9.022151 23.785624 8.645633 6.787444 -10.818121 -12.840874 10.428564 -6.112373 -2.222984 -5.353184 9.195126 1.043140 -1.923105 19.966629 -10.468551 -9.257678 -16.769685 15.277950 -5.017050 9.953120 0.049882 0.850771 12.876966 0.701299 -4.007530 4.220454 -1.060728 -3.135150 -0.214264 0.014583 -13.759671 13.466186 -1.938788 -15.692557 8.207976 -31.067767 -2.913884 8.213584 -47.003907 -8.914553 7.425463 0.496170 -20.553055 16.553671 -13.310384 4.047518 -1.344909 -7.592857 -2.178547 -8.457634 32.321171 7.023253 5.895103 52.230594 2.661326 10.560123 -6.021281 16.562397 -0.002328 8.854999 -3.890149 -2.648539 9.405141 8.309096 -2.336374 
0.010021 0.036941 -0.009107 176.413792 26.890368 -24.327547 3.399311 2.116503 -1.751336 -6.417735 -7.967934 32.290074 9.111713 7.085857 -12.184550 -12.556885 11.089034 -8.055045 -2.344466 -4.670027 4.287825 1.672681 -2.775778 27.717331 -10.628519 -10.579145 -19.416324 14.318155 -4.400079 9.468632 0.243088 0.508225 15.444916 0.901223 -3.987436 3.239238 -1.293082 -3.413098 0.448021 0.056883 -13.490625 13.624296 -2.857188 -15.925971 10.381519 -30.807951 -3.245403 8.105719 -46.452327 -9.446179 7.198122 0.942684 -21.368615 15.867211 -12.599457 4.480721 -1.369255 -7.448218 -1.934810 -8.420268 31.985399 7.148813 5.548847 51.661157 2.942790 10.705107 -6.767985 19.213015 -0.575194 8.001360 -3.704792 -2.848634 8.973487 8.149393 -1.987590 
0.014178 0.055691 -0.013024 176.064286 27.986486 -22.895419 3.684407 0.970186 -8.883913 -8.182369 -6.314728 41.287772 9.232195 7.081971 -12.738745 -11.951876 11.611273 -10.161583 -2.450133 -4.126846 -1.788713 2.102545 -4.128965 35.996112 -10.635929 -11.784345 -21.700588 13.016319 -4.110681 8.623347 0.441782 0.151917 18.452719 1.187951 -4.058226 1.827560 -1.261501 -3.683370 0.915324 0.403367 -13.520016 12.243213 -2.781975 -16.378166 11.110603 -29.847825 -4.140084 7.850475 -46.391411 -10.113375 7.127581 1.351192 -21.915573 15.430919 -11.798503 4.708818 -1.284841 -7.119287 -1.585348 -8.487838 30.767818 7.854291 5.083512 51.605245 3.497612 10.861131 -7.516882 21.865989 -0.559532 7.138772 -3.331110 -3.050207 8.179028 7.840581 -1.619042 
0.018806 0.083030 -0.018419 175.914366 28.086285 -20.935691 4.399659 -0.189101 -17.583719 -9.928437 -3.573596 51.706889 9.511647 7.174907 -12.960855 -11.325269 12.186730 -12.474838 -2.827185 -3.328463 -9.870191 2.501224 -5.695247 46.579145 -10.548198 -12.695611 -23.957526 11.512318 -3.953049 7.333706 0.539497 -0.047108 22.144495 1.553745 -3.785359 -0.043321 -1.129931 -3.710343 1.074795 1.136887 -13.415481 9.518354 -2.272282 -16.880211 11.224882 -28.543095 -5.549760 7.466921 -46.150090 -10.932984 7.353064 1.774136 -23.422634 15.221859 -10.668055 4.746739 -1.044527 -6.939626 -1.208630 -8.743840 29.289652 9.229985 4.700419 51.436832 4.532573 11.097382 -8.495114 24.933529 -0.574543 6.142439 -2.866564 -3.171608 7.316344 7.462773 -1.431756 
0.021283 0.120271 -0.019053 175.664243 27.697098 -19.767314 5.355251 -1.599731 -26.553514 -11.058200 -0.568296 64.042375 9.381520 7.565937 -13.047832 -10.371972 12.845377 -15.527296 -3.084818 -2.132873 -17.828204 2.608505 -6.910148 58.760811 -10.160631 -13.553931 -26.713999 9.666690 -3.860748 5.528210 0.570851 -0.239490 25.829486 1.990995 -3.352081 -1.945105 -0.979793 -3.683377 1.302912 2.197823 -12.831627 6.084995 -1.716276 -16.931735 11.014166 -27.378054 -5.936424 6.722873 -46.042917 -11.390001 7.457063 3.022174 -27.094950 14.178970 -8.949978 4.643087 -1.341390 -6.909311 -0.863066 -8.729098 28.019266 9.726489 3.822493 51.569923 5.201044 11.293861 -10.848375 29.733364 -2.074215 4.795660 -2.320080 -4.001846 6.511811 7.024416 -1.100463 
0.019359 0.165630 -0.012299 175.554265 26.928665 -19.840701 6.650701 -2.204193 -34.192315 -12.285546 2.358013 76.881861 9.194647 7.410945 -12.748707 -9.431209 13.382157 -19.329772 -4.082450 -1.364199 -25.549874 3.269783 -7.612610 73.446361 -8.879997 -12.990987 -27.725969 6.889622 -3.138259 2.321979 0.426569 -0.552513 28.241951 2.353613 -2.763810 -3.543118 -1.173178 -3.674500 1.656362 2.928415 -12.046421 3.706096 -1.796047 -16.649749 11.966243 -26.467727 -5.399122 5.932903 -46.467243 -11.548888 7.390730 4.268623 -28.734193 13.093761 -7.326652 4.697787 -1.313751 -7.441068 -0.754024 -9.107307 27.119960 9.345574 2.948972 51.905161 5.406599 11.702565 -12.424546 32.988938 -2.944901 3.589581 -1.960854 -4.139445 6.410921 6.731589 -0.978387 
0.011149 0.220198 0.004780 175.592801 26.678648 -21.895873 7.563172 -2.542776 -39.640250 -13.361743 5.345227 90.424597 9.182547 6.845122 -12.150365 -9.217246 13.818489 -23.654655 -5.538745 -1.230737 -30.679038 4.253917 -8.103127 88.665378 -7.539224 -11.819709 -27.739381 4.124580 -2.089407 -1.456177 0.305443 -0.805937 29.433250 2.713308 -2.351318 -4.279930 -1.667646 -3.847081 2.046419 3.104145 -11.868920 3.017983 -2.642658 -16.378738 13.668533 -26.304885 -4.441699 5.501783 -46.840103 -11.138005 7.104280 4.729183 -27.754847 12.532914 -6.471016 5.259987 -1.102153 -8.604675 -0.891704 -9.934974 26.864502 8.219417 2.288367 51.680978 4.824309 11.703672 -13.789153 35.002528 -4.290985 2.606502 -2.039974 -4.243236 7.102879 6.678329 -0.997403 
